<svg width="20" height="20" viewBox="0 0 24 24" fill="none" xmlns="http://www.w3.org/2000/svg">
    <path fill-rule="evenodd" clip-rule="evenodd" d="M12 2C6.48 2 2 6.48 2 12C2 16.42 4.87 20.17 8.84 21.5C9.34 21.58 9.52 21.27 9.52 21.01C9.52 20.78 9.51 20.14 9.51 19.37C6.73 19.97 6.14 17.99 6.14 17.99C5.68 16.81 5.03 16.5 5.03 16.5C4.12 15.91 5.1 15.92 5.1 15.92C6.1 15.99 6.63 16.94 6.63 16.94C7.5 18.47 8.97 18.02 9.57 17.77C9.66 17.13 9.91 16.69 10.18 16.44C7.95 16.19 5.6 15.31 5.6 11.54C5.6 10.45 5.99 9.56 6.64 8.87C6.54 8.62 6.2 7.58 6.74 6.15C6.74 6.15 7.59 5.88 9.52 7.17C10.32 6.95 11.18 6.84 12.03 6.84C12.88 6.84 13.75 6.95 14.55 7.17C16.47 5.88 17.32 6.15 17.32 6.15C17.87 7.58 17.52 8.62 17.42 8.87C18.08 9.56 18.46 10.45 18.46 11.54C18.46 15.32 16.1 16.18 13.86 16.43C14.22 16.75 14.51 17.37 14.51 18.34C14.51 19.72 14.49 20.72 14.49 21.01C14.49 21.27 14.66 21.59 15.17 21.5C19.13 20.17 22 16.42 22 12C22 6.48 17.52 2 12 2Z" fill="#ffffff"/>
</svg>
