<svg width="20" height="20" viewBox="0 0 24 24" fill="none" xmlns="http://www.w3.org/2000/svg">
    <path d="M4.98 3.5C4.98 4.60457 4.10457 5.48 3 5.48C1.89543 5.48 1.02 4.60457 1.02 3.5C1.02 2.39543 1.89543 1.52 3 1.52C4.10457 1.52 4.98 2.39543 4.98 3.5Z" fill="#ffffff"/>
    <path d="M0.5 8.5H5.5V23.5H0.5V8.5Z" fill="#ffffff"/>
    <path d="M8.5 8.5H13.1V10.3H13.2C13.98 9.14 15.66 7.9 18.06 7.9C22.22 7.9 23 10.62 23 14.68V23.5H18V15.6C18 13.58 17.62 11.9 15.1 11.9C12.6 11.9 12 13.88 12 15.48V23.5H7V8.5H8.5Z" fill="#ffffff"/>
</svg>
